<svg width="240" height="160" viewBox="0 0 240 160" xmlns="http://www.w3.org/2000/svg">
  <rect width="240" height="160" rx="34" fill="#11143A"/>
  <circle cx="44" cy="38" r="4" fill="#F8F7FF"/>
  <circle cx="198" cy="42" r="3" fill="#F8F7FF"/>
  <circle cx="210" cy="118" r="4" fill="#F8F7FF"/>
  <circle cx="72" cy="122" r="3" fill="#F8F7FF"/>
  <circle cx="188" cy="92" r="22" fill="#6CE2FF"/>
  <circle cx="188" cy="92" r="14" fill="#2D75FF"/>
  <path d="M158 96c18-17 43-22 62-11" fill="none" stroke="#F7E76E" stroke-width="5" stroke-linecap="round"/>
  <ellipse cx="112" cy="88" rx="40" ry="45" fill="#C98342"/>
  <circle cx="95" cy="74" r="11" fill="#FFE8A3"/>
  <circle cx="129" cy="74" r="11" fill="#FFE8A3"/>
  <circle cx="95" cy="74" r="5" fill="#1B1D35"/>
  <circle cx="129" cy="74" r="5" fill="#1B1D35"/>
  <path d="M99 103c9 8 20 8 28 0" fill="none" stroke="#1B1D35" stroke-width="5" stroke-linecap="round"/>
  <path d="M73 128c-7-27 4-49 20-63" fill="none" stroke="#8B5A2B" stroke-width="10" stroke-linecap="round"/>
  <path d="M151 128c7-27-4-49-20-63" fill="none" stroke="#8B5A2B" stroke-width="10" stroke-linecap="round"/>
  <path d="M70 136h86" stroke="#45D9FF" stroke-width="7" stroke-linecap="round"/>
  <path d="M91 132l-14 15M134 132l14 15" stroke="#F7E76E" stroke-width="5" stroke-linecap="round"/>
</svg>
