<svg width="240" height="160" viewBox="0 0 240 160" xmlns="http://www.w3.org/2000/svg">
  <rect width="240" height="160" rx="32" fill="#FFF1E4"/>
  <circle cx="54" cy="48" r="26" fill="#FCD34D"/>
  <path d="M29 50c22 7 42 7 64 0" stroke="#F97316" stroke-width="5" stroke-linecap="round"/>
  <path d="M34 106c28-31 58-33 91-8 27 20 55 17 82-2" fill="none" stroke="#38BDF8" stroke-width="10" stroke-linecap="round"/>
  <path d="M33 118c29-25 59-27 91-7 27 17 56 15 84-2" fill="none" stroke="#0EA5E9" stroke-width="5" stroke-linecap="round"/>
  <ellipse cx="134" cy="75" rx="35" ry="38" fill="#E8A15B"/>
  <circle cx="122" cy="67" r="10" fill="#FFF4B8"/>
  <circle cx="147" cy="67" r="10" fill="#FFF4B8"/>
  <circle cx="122" cy="67" r="4" fill="#3B2618"/>
  <circle cx="147" cy="67" r="4" fill="#3B2618"/>
  <path d="M123 91c8 7 18 7 25 0" fill="none" stroke="#3B2618" stroke-width="5" stroke-linecap="round"/>
  <path d="M91 85c-12 10-20 22-24 38" stroke="#65A30D" stroke-width="9" stroke-linecap="round"/>
  <path d="M178 82c15 8 26 19 34 34" stroke="#65A30D" stroke-width="9" stroke-linecap="round"/>
  <path d="M190 42c10-14 20-18 35-14-5 14-15 22-31 23z" fill="#22C55E"/>
  <path d="M193 46c-9-13-21-17-35-11 7 13 18 20 34 20z" fill="#16A34A"/>
</svg>
